# xmcd CD database file
# Copyright (C) 1993-1998 Ti Kan
#
# Track frame offsets:
#	182
#	12995
#	27145
#	37195
#	47122
#	57840
#	72525
#	83672
#	94395
#	105432
#
# Disc length: 1555 seconds
#
# Revision: 1
# Processed by: cddbd v1.4b41PL1 Copyright (c) Steve Scherf et al.
# Submitted via: NotifyCDPlayer(CDDB) 1.51.3
#
DISCID=8006110a
DTITLE=Hank Thompson - Greatest Songs Volume One
DYEAR=1900
DGENRE=
TTITLE0=Wild Side Of Life
TTITLE1=Most Of All
TTITLE2=A Fooler, A Faker
TTITLE3=A Six Pack To Go
TTITLE4=Green Light
TTITLE5=Yesterday's Girl
TTITLE6=Squaws Along The Yukon
TTITLE7=Honky Tonk Girl
TTITLE8=Humpty Dumpty Heart
TTITLE9=Find Her Keep Her
EXTD=
EXTT0=
EXTT1=
EXTT2=
EXTT3=
EXTT4=
EXTT5=
EXTT6=
EXTT7=
EXTT8=
EXTT9=
PLAYORDER=
